<svg width="64" height="61" viewBox="0 0 64 61" fill="none" xmlns="http://www.w3.org/2000/svg">
<path d="M9.82422 41.8701C14.9747 41.8701 19.1484 46.0384 19.1484 51.1787C19.1484 56.319 14.9746 60.4873 9.82422 60.4873C4.67388 60.4872 0.500077 56.3189 0.5 51.1787C0.5 46.0384 4.67383 41.8702 9.82422 41.8701ZM63.1318 60.4297H46.6621L20.4258 15.1162L28.6318 0.994141L63.1318 60.4297ZM10.7598 32.0771C14.4179 30.1153 18.6946 29.6151 22.7178 30.6914C26.9024 31.811 30.4698 34.5445 32.6357 38.29C34.8017 42.0356 35.3887 46.4865 34.2676 50.6641C33.1896 54.6809 30.6165 58.1276 27.085 60.3096L10.7598 32.0771Z" fill="#FF772D" stroke="white"/>
</svg>
